<mxfile host="app.diagrams.net" modified="2021-01-01T23:26:02.413Z" agent="5.0 (Windows NT 10.0; Win64; x64) AppleWebKit/537.36 (KHTML, like Gecko) Chrome/87.0.4280.88 Safari/537.36" etag="Ye8nVROD_MShzOT9CrR0" version="14.1.7" type="github">
  <diagram name="Page-1" id="e7e014a7-5840-1c2e-5031-d8a46d1fe8dd">
    <mxGraphModel dx="1422" dy="794" grid="1" gridSize="10" guides="1" tooltips="1" connect="1" arrows="1" fold="1" page="1" pageScale="1" pageWidth="1169" pageHeight="826" background="#ffffff" math="0" shadow="0">
      <root>
        <mxCell id="0" />
        <mxCell id="1" parent="0" />
        <mxCell id="UQb2Rl0LaCDwgWPK151O-41" value="Vehiculo" style="swimlane;fontStyle=1;align=center;verticalAlign=top;childLayout=stackLayout;horizontal=1;startSize=26;horizontalStack=0;resizeParent=1;resizeParentMax=0;resizeLast=0;collapsible=1;marginBottom=0;" vertex="1" parent="1">
          <mxGeometry x="710" y="46" width="250" height="242" as="geometry" />
        </mxCell>
        <mxCell id="UQb2Rl0LaCDwgWPK151O-42" value="- marca: string&#xa;" style="text;strokeColor=none;fillColor=none;align=left;verticalAlign=top;spacingLeft=4;spacingRight=4;overflow=hidden;rotatable=0;points=[[0,0.5],[1,0.5]];portConstraint=eastwest;" vertex="1" parent="UQb2Rl0LaCDwgWPK151O-41">
          <mxGeometry y="26" width="250" height="26" as="geometry" />
        </mxCell>
        <mxCell id="UQb2Rl0LaCDwgWPK151O-43" value="- modelo: string&#xa;" style="text;strokeColor=none;fillColor=none;align=left;verticalAlign=top;spacingLeft=4;spacingRight=4;overflow=hidden;rotatable=0;points=[[0,0.5],[1,0.5]];portConstraint=eastwest;" vertex="1" parent="UQb2Rl0LaCDwgWPK151O-41">
          <mxGeometry y="52" width="250" height="26" as="geometry" />
        </mxCell>
        <mxCell id="UQb2Rl0LaCDwgWPK151O-44" value="- precio: float&#xa;" style="text;strokeColor=none;fillColor=none;align=left;verticalAlign=top;spacingLeft=4;spacingRight=4;overflow=hidden;rotatable=0;points=[[0,0.5],[1,0.5]];portConstraint=eastwest;" vertex="1" parent="UQb2Rl0LaCDwgWPK151O-41">
          <mxGeometry y="78" width="250" height="26" as="geometry" />
        </mxCell>
        <mxCell id="UQb2Rl0LaCDwgWPK151O-45" value="" style="line;strokeWidth=1;fillColor=none;align=left;verticalAlign=middle;spacingTop=-1;spacingLeft=3;spacingRight=3;rotatable=0;labelPosition=right;points=[];portConstraint=eastwest;" vertex="1" parent="UQb2Rl0LaCDwgWPK151O-41">
          <mxGeometry y="104" width="250" height="8" as="geometry" />
        </mxCell>
        <mxCell id="UQb2Rl0LaCDwgWPK151O-46" value="~ getMarca(): String" style="text;strokeColor=none;fillColor=none;align=left;verticalAlign=top;spacingLeft=4;spacingRight=4;overflow=hidden;rotatable=0;points=[[0,0.5],[1,0.5]];portConstraint=eastwest;" vertex="1" parent="UQb2Rl0LaCDwgWPK151O-41">
          <mxGeometry y="112" width="250" height="26" as="geometry" />
        </mxCell>
        <mxCell id="UQb2Rl0LaCDwgWPK151O-47" value="~ getModelo(): String" style="text;strokeColor=none;fillColor=none;align=left;verticalAlign=top;spacingLeft=4;spacingRight=4;overflow=hidden;rotatable=0;points=[[0,0.5],[1,0.5]];portConstraint=eastwest;" vertex="1" parent="UQb2Rl0LaCDwgWPK151O-41">
          <mxGeometry y="138" width="250" height="26" as="geometry" />
        </mxCell>
        <mxCell id="UQb2Rl0LaCDwgWPK151O-48" value="~ getPrecio(): float" style="text;strokeColor=none;fillColor=none;align=left;verticalAlign=top;spacingLeft=4;spacingRight=4;overflow=hidden;rotatable=0;points=[[0,0.5],[1,0.5]];portConstraint=eastwest;" vertex="1" parent="UQb2Rl0LaCDwgWPK151O-41">
          <mxGeometry y="164" width="250" height="26" as="geometry" />
        </mxCell>
        <mxCell id="UQb2Rl0LaCDwgWPK151O-49" value="~ muestraPrecioFormateado(): String" style="text;strokeColor=none;fillColor=none;align=left;verticalAlign=top;spacingLeft=4;spacingRight=4;overflow=hidden;rotatable=0;points=[[0,0.5],[1,0.5]];portConstraint=eastwest;" vertex="1" parent="UQb2Rl0LaCDwgWPK151O-41">
          <mxGeometry y="190" width="250" height="26" as="geometry" />
        </mxCell>
        <mxCell id="UQb2Rl0LaCDwgWPK151O-50" value="+ toString(): String" style="text;strokeColor=none;fillColor=none;align=left;verticalAlign=top;spacingLeft=4;spacingRight=4;overflow=hidden;rotatable=0;points=[[0,0.5],[1,0.5]];portConstraint=eastwest;" vertex="1" parent="UQb2Rl0LaCDwgWPK151O-41">
          <mxGeometry y="216" width="250" height="26" as="geometry" />
        </mxCell>
        <mxCell id="UQb2Rl0LaCDwgWPK151O-51" value="Auto" style="swimlane;fontStyle=1;align=center;verticalAlign=top;childLayout=stackLayout;horizontal=1;startSize=26;horizontalStack=0;resizeParent=1;resizeParentMax=0;resizeLast=0;collapsible=1;marginBottom=0;" vertex="1" parent="1">
          <mxGeometry x="585" y="440" width="180" height="112" as="geometry" />
        </mxCell>
        <mxCell id="UQb2Rl0LaCDwgWPK151O-52" value="- cantidadPuertas: int&#xa;" style="text;strokeColor=none;fillColor=none;align=left;verticalAlign=top;spacingLeft=4;spacingRight=4;overflow=hidden;rotatable=0;points=[[0,0.5],[1,0.5]];portConstraint=eastwest;" vertex="1" parent="UQb2Rl0LaCDwgWPK151O-51">
          <mxGeometry y="26" width="180" height="26" as="geometry" />
        </mxCell>
        <mxCell id="UQb2Rl0LaCDwgWPK151O-53" value="" style="line;strokeWidth=1;fillColor=none;align=left;verticalAlign=middle;spacingTop=-1;spacingLeft=3;spacingRight=3;rotatable=0;labelPosition=right;points=[];portConstraint=eastwest;" vertex="1" parent="UQb2Rl0LaCDwgWPK151O-51">
          <mxGeometry y="52" width="180" height="8" as="geometry" />
        </mxCell>
        <mxCell id="UQb2Rl0LaCDwgWPK151O-54" value="~ getCantidadPuertas(): int" style="text;strokeColor=none;fillColor=none;align=left;verticalAlign=top;spacingLeft=4;spacingRight=4;overflow=hidden;rotatable=0;points=[[0,0.5],[1,0.5]];portConstraint=eastwest;" vertex="1" parent="UQb2Rl0LaCDwgWPK151O-51">
          <mxGeometry y="60" width="180" height="26" as="geometry" />
        </mxCell>
        <mxCell id="UQb2Rl0LaCDwgWPK151O-55" value="+ toString(): String" style="text;strokeColor=none;fillColor=none;align=left;verticalAlign=top;spacingLeft=4;spacingRight=4;overflow=hidden;rotatable=0;points=[[0,0.5],[1,0.5]];portConstraint=eastwest;" vertex="1" parent="UQb2Rl0LaCDwgWPK151O-51">
          <mxGeometry y="86" width="180" height="26" as="geometry" />
        </mxCell>
        <mxCell id="UQb2Rl0LaCDwgWPK151O-56" value="Moto" style="swimlane;fontStyle=1;align=center;verticalAlign=top;childLayout=stackLayout;horizontal=1;startSize=26;horizontalStack=0;resizeParent=1;resizeParentMax=0;resizeLast=0;collapsible=1;marginBottom=0;" vertex="1" parent="1">
          <mxGeometry x="890" y="440" width="180" height="112" as="geometry" />
        </mxCell>
        <mxCell id="UQb2Rl0LaCDwgWPK151O-57" value="- cilindrada: int&#xa;" style="text;strokeColor=none;fillColor=none;align=left;verticalAlign=top;spacingLeft=4;spacingRight=4;overflow=hidden;rotatable=0;points=[[0,0.5],[1,0.5]];portConstraint=eastwest;" vertex="1" parent="UQb2Rl0LaCDwgWPK151O-56">
          <mxGeometry y="26" width="180" height="26" as="geometry" />
        </mxCell>
        <mxCell id="UQb2Rl0LaCDwgWPK151O-58" value="" style="line;strokeWidth=1;fillColor=none;align=left;verticalAlign=middle;spacingTop=-1;spacingLeft=3;spacingRight=3;rotatable=0;labelPosition=right;points=[];portConstraint=eastwest;" vertex="1" parent="UQb2Rl0LaCDwgWPK151O-56">
          <mxGeometry y="52" width="180" height="8" as="geometry" />
        </mxCell>
        <mxCell id="UQb2Rl0LaCDwgWPK151O-59" value="~ getCilindrada(): int" style="text;strokeColor=none;fillColor=none;align=left;verticalAlign=top;spacingLeft=4;spacingRight=4;overflow=hidden;rotatable=0;points=[[0,0.5],[1,0.5]];portConstraint=eastwest;" vertex="1" parent="UQb2Rl0LaCDwgWPK151O-56">
          <mxGeometry y="60" width="180" height="26" as="geometry" />
        </mxCell>
        <mxCell id="UQb2Rl0LaCDwgWPK151O-60" value="+ toString(): String" style="text;strokeColor=none;fillColor=none;align=left;verticalAlign=top;spacingLeft=4;spacingRight=4;overflow=hidden;rotatable=0;points=[[0,0.5],[1,0.5]];portConstraint=eastwest;" vertex="1" parent="UQb2Rl0LaCDwgWPK151O-56">
          <mxGeometry y="86" width="180" height="26" as="geometry" />
        </mxCell>
        <mxCell id="UQb2Rl0LaCDwgWPK151O-61" value="Extends" style="endArrow=block;endSize=16;endFill=0;html=1;exitX=0.5;exitY=0;exitDx=0;exitDy=0;" edge="1" parent="1" source="UQb2Rl0LaCDwgWPK151O-56" target="UQb2Rl0LaCDwgWPK151O-50">
          <mxGeometry width="160" relative="1" as="geometry">
            <mxPoint x="406" y="390" as="sourcePoint" />
            <mxPoint x="566" y="390" as="targetPoint" />
          </mxGeometry>
        </mxCell>
        <mxCell id="UQb2Rl0LaCDwgWPK151O-62" value="Extends" style="endArrow=block;endSize=16;endFill=0;html=1;exitX=0.5;exitY=0;exitDx=0;exitDy=0;entryX=0.32;entryY=1.115;entryDx=0;entryDy=0;entryPerimeter=0;" edge="1" parent="1" source="UQb2Rl0LaCDwgWPK151O-51" target="UQb2Rl0LaCDwgWPK151O-50">
          <mxGeometry width="160" relative="1" as="geometry">
            <mxPoint x="253" y="333" as="sourcePoint" />
            <mxPoint x="413" y="333" as="targetPoint" />
          </mxGeometry>
        </mxCell>
        <mxCell id="UQb2Rl0LaCDwgWPK151O-63" value="Concesionaria" style="swimlane;fontStyle=1;align=center;verticalAlign=top;childLayout=stackLayout;horizontal=1;startSize=26;horizontalStack=0;resizeParent=1;resizeParentMax=0;resizeLast=0;collapsible=1;marginBottom=0;" vertex="1" parent="1">
          <mxGeometry x="70" y="46" width="410" height="320" as="geometry" />
        </mxCell>
        <mxCell id="UQb2Rl0LaCDwgWPK151O-64" value="+ vehiculos: ArrayList&lt;Vehiculo&gt;&#xa;" style="text;strokeColor=none;fillColor=none;align=left;verticalAlign=top;spacingLeft=4;spacingRight=4;overflow=hidden;rotatable=0;points=[[0,0.5],[1,0.5]];portConstraint=eastwest;" vertex="1" parent="UQb2Rl0LaCDwgWPK151O-63">
          <mxGeometry y="26" width="410" height="26" as="geometry" />
        </mxCell>
        <mxCell id="UQb2Rl0LaCDwgWPK151O-65" value="+ listaOrdenada: ArrayList&lt;Vehiculo&gt;&#xa;&#xa;" style="text;strokeColor=none;fillColor=none;align=left;verticalAlign=top;spacingLeft=4;spacingRight=4;overflow=hidden;rotatable=0;points=[[0,0.5],[1,0.5]];portConstraint=eastwest;" vertex="1" parent="UQb2Rl0LaCDwgWPK151O-63">
          <mxGeometry y="52" width="410" height="26" as="geometry" />
        </mxCell>
        <mxCell id="UQb2Rl0LaCDwgWPK151O-66" value="" style="line;strokeWidth=1;fillColor=none;align=left;verticalAlign=middle;spacingTop=-1;spacingLeft=3;spacingRight=3;rotatable=0;labelPosition=right;points=[];portConstraint=eastwest;" vertex="1" parent="UQb2Rl0LaCDwgWPK151O-63">
          <mxGeometry y="78" width="410" height="8" as="geometry" />
        </mxCell>
        <mxCell id="UQb2Rl0LaCDwgWPK151O-67" value="+ cargarVehiculos(): void" style="text;strokeColor=none;fillColor=none;align=left;verticalAlign=top;spacingLeft=4;spacingRight=4;overflow=hidden;rotatable=0;points=[[0,0.5],[1,0.5]];portConstraint=eastwest;" vertex="1" parent="UQb2Rl0LaCDwgWPK151O-63">
          <mxGeometry y="86" width="410" height="26" as="geometry" />
        </mxCell>
        <mxCell id="UQb2Rl0LaCDwgWPK151O-68" value="+ retornarMasCaro(): Vehiculo" style="text;strokeColor=none;fillColor=none;align=left;verticalAlign=top;spacingLeft=4;spacingRight=4;overflow=hidden;rotatable=0;points=[[0,0.5],[1,0.5]];portConstraint=eastwest;" vertex="1" parent="UQb2Rl0LaCDwgWPK151O-63">
          <mxGeometry y="112" width="410" height="26" as="geometry" />
        </mxCell>
        <mxCell id="UQb2Rl0LaCDwgWPK151O-69" value="+ retornarMasBarato(): Vehiculo" style="text;strokeColor=none;fillColor=none;align=left;verticalAlign=top;spacingLeft=4;spacingRight=4;overflow=hidden;rotatable=0;points=[[0,0.5],[1,0.5]];portConstraint=eastwest;" vertex="1" parent="UQb2Rl0LaCDwgWPK151O-63">
          <mxGeometry y="138" width="410" height="26" as="geometry" />
        </mxCell>
        <mxCell id="UQb2Rl0LaCDwgWPK151O-70" value="+ retornarPrimeroQueContieneLetra(CharSequence): int" style="text;strokeColor=none;fillColor=none;align=left;verticalAlign=top;spacingLeft=4;spacingRight=4;overflow=hidden;rotatable=0;points=[[0,0.5],[1,0.5]];portConstraint=eastwest;" vertex="1" parent="UQb2Rl0LaCDwgWPK151O-63">
          <mxGeometry y="164" width="410" height="26" as="geometry" />
        </mxCell>
        <mxCell id="UQb2Rl0LaCDwgWPK151O-71" value="+ mostrarVehiculos(void): void" style="text;strokeColor=none;fillColor=none;align=left;verticalAlign=top;spacingLeft=4;spacingRight=4;overflow=hidden;rotatable=0;points=[[0,0.5],[1,0.5]];portConstraint=eastwest;" vertex="1" parent="UQb2Rl0LaCDwgWPK151O-63">
          <mxGeometry y="190" width="410" height="26" as="geometry" />
        </mxCell>
        <mxCell id="UQb2Rl0LaCDwgWPK151O-72" value="+ mostrarMasCaro(Vehiculo): void" style="text;strokeColor=none;fillColor=none;align=left;verticalAlign=top;spacingLeft=4;spacingRight=4;overflow=hidden;rotatable=0;points=[[0,0.5],[1,0.5]];portConstraint=eastwest;" vertex="1" parent="UQb2Rl0LaCDwgWPK151O-63">
          <mxGeometry y="216" width="410" height="26" as="geometry" />
        </mxCell>
        <mxCell id="UQb2Rl0LaCDwgWPK151O-73" value="+ mostrarMasBarato(Vehiculo): void" style="text;strokeColor=none;fillColor=none;align=left;verticalAlign=top;spacingLeft=4;spacingRight=4;overflow=hidden;rotatable=0;points=[[0,0.5],[1,0.5]];portConstraint=eastwest;" vertex="1" parent="UQb2Rl0LaCDwgWPK151O-63">
          <mxGeometry y="242" width="410" height="26" as="geometry" />
        </mxCell>
        <mxCell id="UQb2Rl0LaCDwgWPK151O-74" value="+ mostrarPrimeroQueContieneLetra(Vehiculo): void" style="text;strokeColor=none;fillColor=none;align=left;verticalAlign=top;spacingLeft=4;spacingRight=4;overflow=hidden;rotatable=0;points=[[0,0.5],[1,0.5]];portConstraint=eastwest;" vertex="1" parent="UQb2Rl0LaCDwgWPK151O-63">
          <mxGeometry y="268" width="410" height="26" as="geometry" />
        </mxCell>
        <mxCell id="UQb2Rl0LaCDwgWPK151O-75" value="+ mostrarOrdenadosPorPrecioDescendente(ArrayList&lt;Vehiculo&gt;): void" style="text;strokeColor=none;fillColor=none;align=left;verticalAlign=top;spacingLeft=4;spacingRight=4;overflow=hidden;rotatable=0;points=[[0,0.5],[1,0.5]];portConstraint=eastwest;" vertex="1" parent="UQb2Rl0LaCDwgWPK151O-63">
          <mxGeometry y="294" width="410" height="26" as="geometry" />
        </mxCell>
        <mxCell id="UQb2Rl0LaCDwgWPK151O-76" value="" style="endArrow=open;endFill=1;endSize=12;html=1;exitX=1;exitY=0.5;exitDx=0;exitDy=0;" edge="1" parent="1" source="UQb2Rl0LaCDwgWPK151O-64" target="UQb2Rl0LaCDwgWPK151O-41">
          <mxGeometry width="160" relative="1" as="geometry">
            <mxPoint x="256" y="90" as="sourcePoint" />
            <mxPoint x="596" y="410" as="targetPoint" />
          </mxGeometry>
        </mxCell>
      </root>
    </mxGraphModel>
  </diagram>
</mxfile>
